<svg width="74" height="74" viewBox="0 0 74 74" fill="none" xmlns="http://www.w3.org/2000/svg">
<path d="M38.1131 72.5492C37.406 73.2563 36.2746 73.2563 35.5675 72.5492L29.6985 66.6802C28.9914 65.9731 28.9914 64.8417 29.6985 64.1346L34.2947 59.5384C35.0018 58.8313 35.0018 57.6999 34.2947 56.9928L29.6985 52.3966C28.9914 51.6895 28.9914 50.5581 29.6985 49.851L34.2947 45.2548C35.0018 44.5477 35.0018 43.4164 34.2947 42.7092L29.7692 38.1838C29.0621 37.4767 29.0621 36.3453 29.7692 35.6382L34.3654 31.042C35.0725 30.3349 35.0725 29.2035 34.3654 28.4964L29.8399 23.9709C29.1328 23.2638 29.1328 22.1324 29.8399 21.4253L34.4361 16.8291C35.1432 16.122 35.1432 14.9907 34.4361 14.2836L29.8399 9.68736C29.1328 8.98026 29.1328 7.84889 29.8399 7.14179L35.7089 1.2728C36.416 0.565691 37.5474 0.56568 38.2545 1.27279C38.9616 1.97989 38.9616 3.11128 38.2545 3.81839L34.9311 7.14179C34.224 7.84889 34.224 8.98026 34.9311 9.68736L39.5273 14.2836C40.2344 14.9907 40.2344 16.122 39.5273 16.8291L34.9311 21.4253C34.224 22.1324 34.224 23.2638 34.9311 23.9709L39.5273 28.5671C40.2344 29.2742 40.2344 30.4056 39.5273 31.1127L34.8604 35.7796C34.1532 36.4867 34.1533 37.6181 34.8604 38.3252L39.4566 42.9214C40.1637 43.6285 40.1637 44.7599 39.4565 45.467L34.8604 50.0632C34.1532 50.7703 34.1532 51.9016 34.8604 52.6087L39.4565 57.2049C40.1637 57.912 40.1637 59.0434 39.4566 59.7505L34.8604 64.3467C34.1533 65.0538 34.1532 66.1852 34.8604 66.8923L38.1838 70.2157C38.8202 70.7107 38.8202 71.8421 38.1131 72.5492Z" fill="#F7D89E"/>
</svg>
